<svg width="82" height="61" viewBox="0 0 82 61" fill="none" xmlns="http://www.w3.org/2000/svg">
<path d="M44.9814 0.367471L28.7918 61H14.9938L0 0.367471H10.8544L22.9046 54.1099L34.8629 0.367471H44.9814Z" fill="#A74040"/>
<path d="M77.8606 16.9955C77.8606 21.1601 76.7874 24.7124 74.6411 27.6521C72.5561 30.5919 69.6738 32.5823 65.9944 33.6235L82 61H70.2257L53.8521 31.9699C53.4842 31.2962 53.3002 30.6837 53.3002 30.1325C57.8996 30.1325 61.303 29.122 63.5107 27.1009C65.7184 25.0186 66.8222 21.7726 66.8222 17.363C66.8222 13.6883 65.8717 10.9629 63.9706 9.18675C62.1309 7.3494 59.2793 6.43072 55.4159 6.43072C53.5149 6.43072 51.5525 6.58383 49.5288 6.89006V61H38.7664V0.734941C46.0026 0.24498 51.7671 0 56.0598 0C70.5937 0 77.8606 5.66516 77.8606 16.9955Z" fill="#A74040"/>
</svg>
