
<svg width="408" height="304" viewBox="0 0 408 304" fill="none" xmlns="http://www.w3.org/2000/svg">
<path d="M223.81 1.83133L143.257 304H74.6033L0 1.83133H54.0073L113.964 269.663L173.464 1.83133H223.81Z" fill="black"/>
<path d="M387.404 84.6988C387.404 105.454 382.064 123.157 371.385 137.807C361.011 152.458 346.67 162.378 328.362 167.566L408 304H349.416L267.947 159.325C266.117 155.968 265.201 152.916 265.201 150.169C288.086 150.169 305.02 145.133 316.005 135.06C326.989 124.683 332.481 108.506 332.481 86.5301C332.481 68.2169 327.752 54.6345 318.293 45.7831C309.139 36.6265 294.951 32.0482 275.728 32.0482C266.269 32.0482 256.505 32.8112 246.436 34.3373V304H192.886V3.66266C228.891 1.22089 257.573 0 278.932 0C351.247 0 387.404 28.2329 387.404 84.6988Z" fill="black"/>
</svg>
